<?xml version="1.0" standalone="no"?>
<!DOCTYPE svg PUBLIC "-//W3C//DTD SVG 20010904//EN"
 "http://www.w3.org/TR/2001/REC-SVG-20010904/DTD/svg10.dtd">
<svg version="1.0" xmlns="http://www.w3.org/2000/svg"
 width="1080.000000pt" height="1080.000000pt" viewBox="0 0 1080.000000 1080.000000"
 preserveAspectRatio="xMidYMid meet">
<metadata>
Created by potrace 1.16, written by Peter Selinger 2001-2019
</metadata>
<g transform="translate(0.000000,1080.000000) scale(0.100000,-0.100000)"
fill="#000000" stroke="none">
<path d="M7400 6790 c0 -5 -11 -12 -25 -16 -14 -3 -30 -15 -36 -25 -5 -11 -16
-19 -24 -19 -8 0 -19 -9 -25 -20 -6 -11 -15 -18 -20 -15 -5 3 -15 -3 -22 -15
-7 -11 -19 -20 -27 -20 -21 0 -68 -59 -80 -102 -7 -21 -15 -38 -20 -38 -4 0
-8 -6 -8 -14 0 -22 -65 -166 -74 -166 -5 0 -9 -14 -9 -32 0 -21 3 -29 10 -22
7 7 140 301 140 310 0 1 45 34 100 73 55 38 100 66 100 61 0 -4 -43 -109 -96
-232 -89 -209 -137 -322 -345 -810 -46 -109 -86 -198 -89 -198 -6 0 -83 117
-91 139 -4 12 -9 9 -20 -14 -14 -28 -15 -28 -94 -27 -44 2 -315 -1 -602 -4
-446 -5 -523 -9 -523 -21 0 -8 -4 -12 -9 -9 -5 3 -14 -1 -21 -9 -7 -8 -16 -13
-20 -10 -4 3 -11 -2 -14 -11 -3 -8 -10 -12 -16 -9 -5 3 -10 2 -10 -3 0 -13
-69 -57 -103 -66 -15 -3 -26 -10 -23 -15 3 -4 -10 -17 -29 -27 -19 -10 -35
-21 -35 -24 0 -3 35 -4 77 -3 l78 1 -65 -9 c-36 -5 -75 -10 -87 -9 -16 0 -23
-6 -23 -20 0 -18 7 -20 70 -20 63 0 70 -2 70 -20 0 -20 7 -20 364 -20 355 0
364 0 369 20 5 19 14 20 281 20 l276 0 0 23 c0 50 12 49 -411 38 -432 -12
-786 -14 -777 -5 3 3 192 9 419 14 228 5 491 12 584 15 100 4 176 2 183 -3 8
-5 17 -24 21 -42 8 -40 31 -53 31 -18 0 28 17 48 42 48 20 0 42 -35 34 -56 -4
-11 8 -14 59 -14 58 0 65 -2 65 -20 0 -20 7 -20 870 -20 737 0 870 2 870 14 0
8 -7 17 -16 20 -10 4 -13 13 -9 25 4 12 0 21 -11 25 -13 5 -15 9 -6 18 15 15
15 28 1 28 -6 0 -16 6 -24 13 -7 7 -38 19 -69 27 -31 7 -56 17 -56 21 0 4 -17
13 -37 19 -21 7 -47 18 -58 25 -18 11 -56 23 -93 31 -8 1 -16 5 -19 8 -5 5 79
46 95 46 6 0 29 9 52 19 24 11 49 17 57 14 7 -3 13 -1 13 4 0 6 19 18 43 27
l42 17 -30 25 c-16 13 -36 22 -42 19 -7 -2 -13 0 -13 5 0 6 -5 10 -12 10 -6 0
-34 11 -62 24 -29 14 -71 30 -94 38 -23 7 -42 15 -42 18 0 3 38 35 84 70 47
36 85 70 85 76 1 12 -117 40 -126 30 -3 -3 -11 0 -17 7 -7 7 -69 21 -138 31
l-126 20 42 45 c22 25 80 87 129 137 48 49 87 94 87 98 0 11 -332 -3 -344 -15
-11 -10 -56 -12 -56 -3 0 18 135 171 147 167 9 -3 13 3 13 21 0 18 -5 26 -17
26 -22 0 -141 -22 -283 -50 -58 -12 -118 -21 -135 -21 -16 0 -35 -5 -42 -11
-9 -7 -13 -7 -13 0 0 21 121 287 136 298 19 15 18 38 -2 30 -9 -3 -28 -9 -42
-12 -30 -7 -115 -54 -120 -66 -2 -4 -10 -4 -19 -1 -11 4 -14 2 -9 -5 4 -7 1
-12 -8 -12 -9 0 -16 -4 -16 -10 0 -5 -7 -10 -15 -10 -20 0 -19 5 9 47 20 29
23 40 14 64 -8 23 -16 29 -39 29 -16 0 -29 -4 -29 -10z m171 -201 c-32 -74
-100 -228 -151 -344 -151 -346 -326 -648 -460 -798 -55 -61 -79 -71 -37 -15
75 100 272 483 393 764 84 196 118 272 169 379 18 39 35 76 37 84 3 12 99 73
106 67 1 -2 -24 -63 -57 -137z m399 -108 c0 -6 -5 -13 -10 -16 -6 -4 -109
-129 -229 -278 -237 -294 -371 -445 -496 -560 -93 -85 -255 -217 -267 -217 -5
0 45 53 110 118 66 64 155 165 199 224 63 86 216 338 282 465 9 17 7 40 -8
103 -15 63 -16 83 -6 86 10 4 388 79 418 83 4 1 7 -3 7 -8z m240 -179 c0 -5
-107 -114 -237 -243 -398 -393 -564 -514 -855 -623 -124 -46 -142 -45 -53 2
195 104 370 245 583 470 l152 161 0 48 c1 72 15 133 36 153 16 15 46 20 164
28 205 13 210 13 210 4z m-44 -311 c83 -17 160 -31 172 -31 12 0 22 -4 22 -9
0 -28 -264 -206 -430 -291 -218 -111 -399 -176 -640 -230 -169 -38 -214 -35
-75 4 248 71 419 156 627 313 46 36 46 36 58 122 11 78 16 90 48 124 21 21 43
35 52 33 8 -3 83 -19 166 -35z m168 -241 c64 -27 121 -50 126 -50 5 0 12 -4
15 -10 8 -13 -34 -29 -261 -106 -269 -90 -577 -162 -759 -178 l-60 -5 65 15
c36 8 94 21 130 30 163 37 554 167 583 194 5 4 -1 27 -12 51 -12 23 -21 46
-21 51 0 5 68 58 76 58 1 0 54 -22 118 -50z m-1964 -238 c0 -83 -6 -92 -57
-92 -38 0 -44 3 -39 18 14 49 18 95 7 88 -6 -4 -11 -13 -11 -19 0 -7 -5 -28
-10 -48 -9 -34 -14 -37 -51 -41 -22 -2 -42 -1 -45 3 -2 4 3 24 12 44 25 61 8
64 -19 4 l-26 -57 -152 -1 -151 -1 17 27 c10 16 33 47 52 70 l34 42 107 3 c59
2 158 4 220 5 l112 1 0 -46z m1983 -36 c89 -34 171 -67 182 -71 18 -7 17 -8
-10 -15 -50 -13 -910 -38 -1015 -30 -35 3 26 17 165 37 61 9 112 19 115 24 3
4 41 17 85 28 44 11 127 36 185 55 58 19 111 34 118 35 7 1 86 -28 175 -63z"/>
</g>
</svg>
